<svg xmlns="http://www.w3.org/2000/svg" viewBox="0 0 512 512"><title>Maximize</title><g id="Maximize"><g id="Maximize-2" data-name="Maximize"><path d="M256,73.8247a182.177,182.177,0,0,0-182.18,182.18c0,100.6083,81.5625,182.1708,182.18,182.1708,100.6082,0,182.18-81.5625,182.18-182.1708A182.1828,182.1828,0,0,0,256,73.8247ZM232.9906,289.3153l-31.131,31.14h11.3022a9.4482,9.4482,0,1,1,0,18.8964h-34.11a9.47,9.47,0,0,1-1.8549-.1845c-.2808-.0621-.5445-.1674-.8172-.2376-.3159-.0972-.6326-.1755-.9486-.2988-.3168-.14-.6156-.3168-.9234-.4833-.2286-.1323-.4743-.2376-.6939-.387a9.0779,9.0779,0,0,1-1.7937-1.5993,9.3572,9.3572,0,0,1-3.1815-7.0227v-34.11a9.4483,9.4483,0,1,1,18.8965,0v12.8232l31.896-31.896a9.4466,9.4466,0,1,1,13.3595,13.36Zm0-54.009a9.4428,9.4428,0,0,1-13.3595,0l-31.896-31.8951v12.8322a9.4483,9.4483,0,0,1-18.8965,0v-34.12a9.4489,9.4489,0,0,1,3.1815-7.0308c.1062-.1053.1854-.2466.2988-.3519.018-.0171.027-.0441.0442-.0612.009-.009.018-.009.027-.018a9.4488,9.4488,0,0,1,1.4147-1.16c.2376-.1575.4833-.2637.729-.3951a8.5408,8.5408,0,0,1,.8973-.4743c.307-.1233.6237-.1935.94-.3.2727-.07.5454-.1845.8262-.2457a9.961,9.961,0,0,1,1.7667-.1665c.027,0,.0531-.009.0792-.009h34.119a9.4482,9.4482,0,1,1,0,18.8964H201.86l31.131,31.131A9.4533,9.4533,0,0,1,232.9906,235.3063Zm45.6408-13.36,31.131-31.1391H298.46a9.4482,9.4482,0,0,1,0-18.8964h34.11a9.9591,9.9591,0,0,1,1.8459.1845c.29.0612.5535.1665.8352.2457.3069.0972.6238.1674.9315.2907.3339.14.6417.3339.9486.5.2287.1233.4572.22.6858.369a9.8813,9.8813,0,0,1,1.7847,1.5912,9.4489,9.4489,0,0,1,3.1815,7.0308v34.12a9.4482,9.4482,0,1,1-18.8963,0V203.4112l-31.896,31.8951a9.4467,9.4467,0,1,1-13.36-13.36Zm64.53,107.1918a9.3572,9.3572,0,0,1-3.1815,7.0227,9.1771,9.1771,0,0,1-1.7937,1.6083c-.2016.1314-.4391.2286-.6588.351a7.6712,7.6712,0,0,1-.9666.51c-.2987.1233-.6156.1935-.9234.29-.2808.0792-.5535.1845-.8343.2466a9.532,9.532,0,0,1-1.8549.1845h-34.11a9.4482,9.4482,0,1,1,0-18.8964h11.2932l-31.13-31.14a9.45,9.45,0,0,1,13.3678-13.36l31.896,31.896V295.0285a9.4482,9.4482,0,1,1,18.8963,0v34.11Z"/></g></g></svg>