<svg xmlns="http://www.w3.org/2000/svg" viewBox="0 0 512 512"><title>Pencil</title><g id="Pencil"><g id="Pencil-2" data-name="Pencil"><path d="M256,73.8247a182.18,182.18,0,0,0-182.18,182.18c0,100.6083,81.567,182.1708,182.18,182.1708,100.6083,0,182.18-81.5625,182.18-182.1708A182.1828,182.1828,0,0,0,256,73.8247Zm86.5989,131.0976-17.3016,17.3061-35.2224-35.2179-13.3632,13.36,35.2215,35.226-86.3874,86.3793-35.2224-35.2089-13.3632,13.36,35.2179,35.2179-8.6049,8.604-.1665-.1584a6.8218,6.8218,0,0,1-4.3506,3.1293L166.2106,354.24a6.54,6.54,0,0,1-1.485.1665,6.8234,6.8234,0,0,1-6.6618-8.3142l7.3206-32.8446a6.86,6.86,0,0,1,3.1293-4.3506l-.1674-.1674L307.381,169.6963a5.2109,5.2109,0,0,1,7.3827.009l27.84,27.8343A5.2085,5.2085,0,0,1,342.5989,204.9223Z"/></g></g></svg>